<svg xmlns="http://www.w3.org/2000/svg" xmlns:xlink="http://www.w3.org/1999/xlink" width="1080" zoomAndPan="magnify" viewBox="0 0 810 809.999993" height="1080" preserveAspectRatio="xMidYMid meet" version="1.0"><defs><clipPath id="a498057ffc"><path d="M 162 17 L 631 17 L 631 796.464844 L 162 796.464844 Z M 162 17 " clip-rule="nonzero"/></clipPath></defs><g clip-path="url(#a498057ffc)"><path fill="#1c2534" d="M 242.183594 796.535156 C 232.285156 796.535156 222.414062 796.203125 212.570312 795.539062 C 212.191406 795.507812 211.832031 795.40625 211.496094 795.234375 C 211.15625 795.0625 210.863281 794.832031 210.617188 794.542969 C 210.371094 794.253906 210.1875 793.933594 210.066406 793.570312 C 209.949219 793.210938 209.902344 792.84375 209.925781 792.464844 C 209.953125 792.085938 210.046875 791.726562 210.214844 791.386719 C 210.382812 791.046875 210.609375 790.75 210.890625 790.496094 C 211.175781 790.246094 211.496094 790.054688 211.851562 789.929688 C 212.210938 789.804688 212.578125 789.75 212.957031 789.769531 C 271.890625 793.742188 332.484375 785.464844 388.1875 765.832031 C 394.9375 763.453125 402.007812 760.765625 408.964844 757.523438 C 390.253906 748.136719 373.175781 736.378906 357.726562 722.253906 C 352.019531 717.03125 344.210938 708.730469 339.398438 698.839844 C 334.441406 688.644531 333.746094 679.09375 337.335938 670.449219 C 344.503906 653.191406 365.585938 648.023438 382.015625 646.726562 C 399.414062 645.347656 413.011719 646.511719 424.800781 650.382812 C 440.097656 655.394531 452.242188 665.4375 458.121094 677.902344 C 462.644531 687.484375 463.574219 698.648438 460.820312 710.191406 C 458.316406 720.703125 452.78125 731.007812 445.257812 739.210938 C 438.5 746.578125 430.503906 752.453125 422.0625 757.285156 C 449.636719 769.460938 479.628906 776.210938 509.679688 776.574219 C 534.421875 776.878906 568.59375 772.421875 590.957031 749.445312 C 650.984375 687.742188 620.109375 609.371094 583.632812 554.492188 C 560.710938 519.996094 532.851562 488.863281 506.164062 460.355469 C 501.964844 455.867188 496.0625 450.523438 489.226562 444.335938 C 477.882812 434.0625 465.011719 422.421875 455.074219 410.269531 C 443.144531 395.695312 438.003906 383.40625 439.359375 372.695312 C 440.667969 362.332031 445.449219 353.011719 450.074219 344 C 450.816406 342.554688 451.585938 341.058594 452.316406 339.597656 C 471.207031 301.910156 479.117188 260.09375 477.960938 204.011719 C 477.820312 193.867188 476.457031 186.042969 475.277344 184.597656 C 472.382812 181.0625 464.785156 183.761719 452.699219 192.589844 L 452.507812 192.730469 C 448.917969 195.351562 445.652344 198.332031 442.714844 201.667969 C 443.5 207.425781 443.769531 213.210938 443.523438 219.019531 C 443.40625 221.414062 443.175781 224.175781 441.890625 226.714844 C 440.253906 229.929688 437.15625 231.945312 433.980469 231.867188 C 429.441406 231.75 426.425781 227.691406 425.894531 223.914062 C 425.398438 220.410156 426.582031 217.109375 427.800781 214.339844 C 430.105469 209.144531 433.046875 204.335938 436.625 199.921875 C 435.332031 191.335938 433.175781 182.847656 431.058594 174.527344 C 430.824219 173.597656 430.589844 172.675781 430.359375 171.757812 C 429.652344 168.882812 429.246094 164.6875 428.914062 160.867188 C 428.113281 165.222656 427.246094 170.609375 426.898438 174.4375 C 426.300781 180.8125 423.242188 190.933594 421.148438 193.433594 C 418.164062 196.976562 410.371094 197.339844 398.832031 197.476562 C 395.011719 197.519531 391.402344 197.566406 389.695312 197.902344 L 387.289062 198.378906 C 367.050781 202.375 344.113281 206.902344 328.890625 220.25 C 327.632812 221.480469 323.90625 228.1875 323.808594 234.09375 C 323.75 237.59375 324.890625 244.566406 327.195312 254.820312 C 327.367188 255.578125 327.445312 255.921875 327.476562 256.113281 C 327.582031 256.675781 327.527344 257.21875 327.3125 257.746094 C 327.097656 258.273438 326.757812 258.699219 326.289062 259.027344 C 325.820312 259.351562 325.304688 259.523438 324.734375 259.546875 C 324.164062 259.566406 323.636719 259.429688 323.148438 259.136719 C 322.492188 258.738281 317.707031 255.796875 312.820312 252.617188 C 309.84375 250.707031 306.695312 248.929688 303.386719 247.050781 C 294.703125 242.132812 285.722656 237.046875 279.332031 229.136719 C 272.199219 220.3125 269.550781 208.320312 266.984375 196.722656 C 265.964844 192.113281 265.003906 187.757812 263.789062 183.75 C 252.496094 146.449219 239.132812 106.238281 222.957031 60.867188 C 219.367188 50.792969 215.296875 39.375 207.417969 31.441406 C 200.539062 24.515625 188.339844 20.015625 179.277344 25.320312 C 173.660156 28.601562 170.273438 32.835938 168.929688 38.21875 C 165.230469 53.039062 177.949219 73.652344 186.378906 87.289062 C 187.402344 88.957031 188.371094 90.511719 189.253906 91.980469 C 204.890625 117.925781 208.113281 143.988281 211.523438 171.585938 C 212.691406 181.050781 213.898438 190.820312 215.640625 200.757812 L 215.640625 200.800781 C 221.488281 234.429688 227.832031 260.789062 241.359375 288.199219 C 244.207031 293.972656 247.265625 299.828125 250.222656 305.496094 C 262.601562 329.226562 275.40625 353.769531 278.214844 381.429688 C 279.222656 391.339844 278.886719 401.382812 278.554688 411.09375 C 278.234375 420.625 277.902344 430.480469 278.875 440.011719 C 281.132812 462.152344 286.988281 482.28125 292.65625 501.75 C 300.847656 529.894531 309.316406 559 306.328125 593.4375 C 306.289062 593.816406 306.179688 594.171875 306 594.507812 C 305.824219 594.84375 305.585938 595.132812 305.292969 595.375 C 305 595.617188 304.675781 595.792969 304.3125 595.90625 C 303.949219 596.023438 303.578125 596.0625 303.199219 596.027344 C 302.820312 595.996094 302.460938 595.890625 302.125 595.71875 C 301.785156 595.542969 301.492188 595.3125 301.246094 595.023438 C 301 594.734375 300.820312 594.40625 300.699219 594.046875 C 300.582031 593.683594 300.539062 593.316406 300.566406 592.9375 C 303.460938 559.574219 295.515625 532.269531 287.101562 503.363281 C 281.363281 483.644531 275.429688 463.261719 273.121094 440.597656 C 272.109375 430.675781 272.445312 420.621094 272.773438 410.898438 C 273.09375 401.378906 273.429688 391.535156 272.460938 382.011719 C 269.761719 355.457031 257.222656 331.414062 245.089844 308.167969 C 242.121094 302.472656 239.046875 296.585938 236.183594 290.757812 C 222.34375 262.714844 215.882812 235.921875 209.949219 201.769531 L 209.949219 201.738281 C 208.183594 191.667969 206.964844 181.816406 205.773438 172.289062 C 202.433594 145.320312 199.292969 119.847656 184.292969 94.957031 C 183.425781 93.519531 182.46875 91.964844 181.453125 90.316406 C 172.519531 75.84375 159.023438 53.996094 163.3125 36.796875 C 165.03125 29.902344 169.417969 24.355469 176.351562 20.300781 C 188.042969 13.464844 202.894531 18.671875 211.515625 27.347656 C 220.304688 36.199219 224.597656 48.261719 228.398438 58.90625 C 244.609375 104.390625 257.996094 144.671875 269.316406 182.066406 C 270.59375 186.285156 271.582031 190.746094 272.625 195.46875 C 275.042969 206.410156 277.546875 217.738281 283.820312 225.496094 C 289.519531 232.554688 298.015625 237.363281 306.230469 242.015625 C 309.472656 243.851562 312.828125 245.75 315.949219 247.757812 C 317.46875 248.742188 318.976562 249.703125 320.34375 250.570312 C 319.101562 244.609375 317.949219 238.023438 318.015625 233.992188 C 318.136719 226.441406 322.660156 218.144531 324.949219 216 L 325.019531 215.9375 C 341.414062 201.535156 365.183594 196.839844 386.15625 192.699219 L 388.554688 192.222656 C 390.78125 191.78125 394.472656 191.738281 398.75 191.6875 C 402.605469 191.640625 406.972656 191.589844 410.550781 191.222656 C 415.734375 190.691406 416.65625 189.738281 416.691406 189.699219 C 417.601562 188.484375 420.539062 180.0625 421.117188 173.878906 C 421.738281 167.167969 423.777344 156.253906 424.644531 152.894531 L 424.644531 152.851562 C 425.710938 148.984375 428.203125 148.417969 429.222656 148.351562 C 429.679688 148.332031 430.128906 148.378906 430.570312 148.496094 C 431.015625 148.617188 431.429688 148.796875 431.8125 149.042969 C 432.199219 149.289062 432.539062 149.585938 432.832031 149.9375 C 433.125 150.289062 433.359375 150.675781 433.535156 151.101562 C 433.960938 152.078125 434.089844 153.605469 434.457031 158.09375 C 434.769531 161.988281 435.199219 167.347656 435.933594 170.339844 L 436.628906 173.082031 C 438.40625 180.082031 440.210938 187.199219 441.535156 194.4375 C 443.882812 192.117188 446.390625 189.984375 449.050781 188.035156 L 449.242188 187.894531 C 452.09375 185.808594 457.402344 181.925781 462.855469 179.507812 C 472.378906 175.285156 477.277344 177.9375 479.707031 180.902344 C 483.175781 185.132812 483.640625 199.550781 483.699219 203.878906 C 484.257812 230.367188 482.769531 253.488281 479.175781 274.542969 C 474.953125 299.289062 467.84375 321.40625 457.445312 342.15625 C 456.699219 343.640625 455.925781 345.148438 455.179688 346.609375 C 450.78125 355.175781 446.238281 364.035156 445.054688 373.386719 C 442.425781 394.175781 471.699219 420.671875 493.070312 440.019531 C 500 446.292969 505.984375 451.707031 510.347656 456.371094 C 537.210938 485.0625 565.253906 516.414062 588.414062 551.257812 C 599.425781 567.824219 608.433594 584.347656 615.1875 600.367188 C 622.800781 618.417969 627.609375 635.996094 629.472656 652.570312 C 633.855469 691.535156 622.277344 725.476562 595.066406 753.445312 C 571.996094 777.152344 537.597656 782.339844 511.945312 782.339844 C 511.148438 782.339844 510.359375 782.339844 509.578125 782.324219 C 481.871094 781.984375 454.464844 776.53125 428.160156 766.117188 C 423.890625 764.429688 419.695312 762.628906 415.574219 760.714844 C 407.089844 764.980469 398.347656 768.351562 390.078125 771.265625 C 366.320312 779.625 342.027344 785.921875 317.203125 790.164062 C 292.375 794.40625 267.371094 796.53125 242.183594 796.535156 Z M 395.253906 651.945312 C 391.242188 651.945312 386.996094 652.125 382.46875 652.480469 C 367.648438 653.652344 348.714844 658.109375 342.664062 672.660156 C 335.066406 690.953125 353.390625 710.449219 361.621094 717.980469 C 377.800781 732.726562 395.769531 744.820312 415.523438 754.257812 C 424.867188 749.316406 433.730469 743.199219 440.988281 735.289062 C 455.691406 719.261719 460.582031 696.675781 452.886719 680.363281 C 447.679688 669.320312 436.78125 660.394531 422.992188 655.867188 C 414.96875 653.230469 405.960938 651.945312 395.253906 651.945312 Z M 437.578125 208.390625 C 435.851562 211.027344 434.351562 213.785156 433.078125 216.667969 C 432.183594 218.6875 431.308594 221.03125 431.601562 223.09375 C 431.820312 224.652344 432.992188 226.046875 434.105469 226.078125 C 435.015625 226.105469 436.109375 225.261719 436.710938 224.085938 C 437.480469 222.570312 437.632812 220.613281 437.722656 218.734375 C 437.886719 215.28125 437.835938 211.835938 437.578125 208.390625 Z M 437.578125 208.390625 " fill-opacity="1" fill-rule="nonzero"/></g></svg>